<svg viewBox="0 0 330 200" xmlns="http://www.w3.org/2000/svg"><g><g><g><g><g><line x1="40" y1="178" x2="35" y2="178" style="visibility: inherit;" fill="rgb(0, 0, 0)" stroke="rgb(204, 204, 204)" stroke-width="1px"></line><line x1="40" y1="164.30769230769232" x2="35" y2="164.30769230769232" style="visibility: inherit;" fill="rgb(0, 0, 0)" stroke="rgb(204, 204, 204)" stroke-width="1px"></line><line x1="40" y1="150.6153846153846" x2="35" y2="150.6153846153846" style="visibility: inherit;" fill="rgb(0, 0, 0)" stroke="rgb(204, 204, 204)" stroke-width="1px"></line><line x1="40" y1="136.9230769230769" x2="35" y2="136.9230769230769" style="visibility: inherit;" fill="rgb(0, 0, 0)" stroke="rgb(204, 204, 204)" stroke-width="1px"></line><line x1="40" y1="123.23076923076923" x2="35" y2="123.23076923076923" style="visibility: inherit;" fill="rgb(0, 0, 0)" stroke="rgb(204, 204, 204)" stroke-width="1px"></line><line x1="40" y1="109.53846153846153" x2="35" y2="109.53846153846153" style="visibility: inherit;" fill="rgb(0, 0, 0)" stroke="rgb(204, 204, 204)" stroke-width="1px"></line><line x1="40" y1="95.84615384615384" x2="35" y2="95.84615384615384" style="visibility: inherit;" fill="rgb(0, 0, 0)" stroke="rgb(204, 204, 204)" stroke-width="1px"></line><line x1="40" y1="82.15384615384616" x2="35" y2="82.15384615384616" style="visibility: inherit;" fill="rgb(0, 0, 0)" stroke="rgb(204, 204, 204)" stroke-width="1px"></line><line x1="40" y1="68.46153846153845" x2="35" y2="68.46153846153845" style="visibility: inherit;" fill="rgb(0, 0, 0)" stroke="rgb(204, 204, 204)" stroke-width="1px"></line><line x1="40" y1="54.769230769230774" x2="35" y2="54.769230769230774" style="visibility: inherit;" fill="rgb(0, 0, 0)" stroke="rgb(204, 204, 204)" stroke-width="1px"></line><line x1="40" y1="41.076923076923066" x2="35" y2="41.076923076923066" style="visibility: inherit;" fill="rgb(0, 0, 0)" stroke="rgb(204, 204, 204)" stroke-width="1px"></line><line x1="40" y1="27.384615384615387" x2="35" y2="27.384615384615387" style="visibility: inherit;" fill="rgb(0, 0, 0)" stroke="rgb(204, 204, 204)" stroke-width="1px"></line><line x1="40" y1="13.69230769230768" x2="35" y2="13.69230769230768" style="visibility: inherit;" fill="rgb(0, 0, 0)" stroke="rgb(204, 204, 204)" stroke-width="1px"></line><line x1="40" y1="0" x2="35" y2="0" style="visibility: inherit;" fill="rgb(0, 0, 0)" stroke="rgb(204, 204, 204)" stroke-width="1px"></line></g><g transform="translate(30, 0)"><text x="0" y="178" dx="0em" dy="0.3em" style="text-anchor: end; visibility: hidden; font-family: &quot;Helvetica Neue&quot;, sans-serif; font-size: 12px; font-weight: 200;" fill="rgb(50, 49, 63)" stroke="none" stroke-width="1px">-30</text><text x="0" y="164.30769230769232" dx="0em" dy="0.3em" style="text-anchor: end; visibility: inherit; font-family: &quot;Helvetica Neue&quot;, sans-serif; font-size: 12px; font-weight: 200;" fill="rgb(50, 49, 63)" stroke="none" stroke-width="1px">-25</text><text x="0" y="150.6153846153846" dx="0em" dy="0.3em" style="text-anchor: end; visibility: hidden; font-family: &quot;Helvetica Neue&quot;, sans-serif; font-size: 12px; font-weight: 200;" fill="rgb(50, 49, 63)" stroke="none" stroke-width="1px">-20</text><text x="0" y="136.9230769230769" dx="0em" dy="0.3em" style="text-anchor: end; visibility: inherit; font-family: &quot;Helvetica Neue&quot;, sans-serif; font-size: 12px; font-weight: 200;" fill="rgb(50, 49, 63)" stroke="none" stroke-width="1px">-15</text><text x="0" y="123.23076923076923" dx="0em" dy="0.3em" style="text-anchor: end; visibility: hidden; font-family: &quot;Helvetica Neue&quot;, sans-serif; font-size: 12px; font-weight: 200;" fill="rgb(50, 49, 63)" stroke="none" stroke-width="1px">-10</text><text x="0" y="109.53846153846153" dx="0em" dy="0.3em" style="text-anchor: end; visibility: inherit; font-family: &quot;Helvetica Neue&quot;, sans-serif; font-size: 12px; font-weight: 200;" fill="rgb(50, 49, 63)" stroke="none" stroke-width="1px">-5</text><text x="0" y="95.84615384615384" dx="0em" dy="0.3em" style="text-anchor: end; visibility: hidden; font-family: &quot;Helvetica Neue&quot;, sans-serif; font-size: 12px; font-weight: 200;" fill="rgb(50, 49, 63)" stroke="none" stroke-width="1px">0</text><text x="0" y="82.15384615384616" dx="0em" dy="0.3em" style="text-anchor: end; visibility: inherit; font-family: &quot;Helvetica Neue&quot;, sans-serif; font-size: 12px; font-weight: 200;" fill="rgb(50, 49, 63)" stroke="none" stroke-width="1px">5</text><text x="0" y="68.46153846153845" dx="0em" dy="0.3em" style="text-anchor: end; visibility: hidden; font-family: &quot;Helvetica Neue&quot;, sans-serif; font-size: 12px; font-weight: 200;" fill="rgb(50, 49, 63)" stroke="none" stroke-width="1px">10</text><text x="0" y="54.769230769230774" dx="0em" dy="0.3em" style="text-anchor: end; visibility: inherit; font-family: &quot;Helvetica Neue&quot;, sans-serif; font-size: 12px; font-weight: 200;" fill="rgb(50, 49, 63)" stroke="none" stroke-width="1px">15</text><text x="0" y="41.076923076923066" dx="0em" dy="0.3em" style="text-anchor: end; visibility: hidden; font-family: &quot;Helvetica Neue&quot;, sans-serif; font-size: 12px; font-weight: 200;" fill="rgb(50, 49, 63)" stroke="none" stroke-width="1px">20</text><text x="0" y="27.384615384615387" dx="0em" dy="0.3em" style="text-anchor: end; visibility: inherit; font-family: &quot;Helvetica Neue&quot;, sans-serif; font-size: 12px; font-weight: 200;" fill="rgb(50, 49, 63)" stroke="none" stroke-width="1px">25</text><text x="0" y="13.69230769230768" dx="0em" dy="0.3em" style="text-anchor: end; visibility: hidden; font-family: &quot;Helvetica Neue&quot;, sans-serif; font-size: 12px; font-weight: 200;" fill="rgb(50, 49, 63)" stroke="none" stroke-width="1px">30</text><text x="0" y="0" dx="0em" dy="0.3em" style="text-anchor: end; visibility: hidden; font-family: &quot;Helvetica Neue&quot;, sans-serif; font-size: 12px; font-weight: 200;" fill="rgb(50, 49, 63)" stroke="none" stroke-width="1px">35</text></g><line x1="40" y1="0" x2="40" y2="178" fill="rgb(0, 0, 0)" stroke="rgb(204, 204, 204)" stroke-width="1px"></line></g></g><g transform="translate(40, 0)" clip-path="url(#clip_0)"><clipPath id="clip_0"><rect width="290" height="178"></rect></clipPath><g><g><g><line x1="0" y1="0" x2="0" y2="178" fill="rgb(0, 0, 0)" stroke="rgb(60, 60, 60)" stroke-width="1px" opacity="0.25"></line><line x1="29" y1="0" x2="29" y2="178" fill="rgb(0, 0, 0)" stroke="rgb(60, 60, 60)" stroke-width="1px" opacity="0.25"></line><line x1="58" y1="0" x2="58" y2="178" fill="rgb(0, 0, 0)" stroke="rgb(60, 60, 60)" stroke-width="1px" opacity="0.25"></line><line x1="87" y1="0" x2="87" y2="178" fill="rgb(0, 0, 0)" stroke="rgb(60, 60, 60)" stroke-width="1px" opacity="0.25"></line><line x1="116" y1="0" x2="116" y2="178" fill="rgb(0, 0, 0)" stroke="rgb(60, 60, 60)" stroke-width="1px" opacity="0.25"></line><line x1="145" y1="0" x2="145" y2="178" fill="rgb(0, 0, 0)" stroke="rgb(60, 60, 60)" stroke-width="1px" opacity="0.25"></line><line x1="174" y1="0" x2="174" y2="178" fill="rgb(0, 0, 0)" stroke="rgb(60, 60, 60)" stroke-width="1px" opacity="0.25"></line><line x1="203" y1="0" x2="203" y2="178" fill="rgb(0, 0, 0)" stroke="rgb(60, 60, 60)" stroke-width="1px" opacity="0.25"></line><line x1="232" y1="0" x2="232" y2="178" fill="rgb(0, 0, 0)" stroke="rgb(60, 60, 60)" stroke-width="1px" opacity="0.25"></line><line x1="261" y1="0" x2="261" y2="178" fill="rgb(0, 0, 0)" stroke="rgb(60, 60, 60)" stroke-width="1px" opacity="0.25"></line><line x1="290" y1="0" x2="290" y2="178" fill="rgb(0, 0, 0)" stroke="rgb(60, 60, 60)" stroke-width="1px" opacity="0.25"></line></g><g><line x1="0" y1="178" x2="290" y2="178" fill="rgb(0, 0, 0)" stroke="rgb(60, 60, 60)" stroke-width="1px" opacity="0.25"></line><line x1="0" y1="164.30769230769232" x2="290" y2="164.30769230769232" fill="rgb(0, 0, 0)" stroke="rgb(60, 60, 60)" stroke-width="1px" opacity="0.25"></line><line x1="0" y1="150.6153846153846" x2="290" y2="150.6153846153846" fill="rgb(0, 0, 0)" stroke="rgb(60, 60, 60)" stroke-width="1px" opacity="0.25"></line><line x1="0" y1="136.9230769230769" x2="290" y2="136.9230769230769" fill="rgb(0, 0, 0)" stroke="rgb(60, 60, 60)" stroke-width="1px" opacity="0.25"></line><line x1="0" y1="123.23076923076923" x2="290" y2="123.23076923076923" fill="rgb(0, 0, 0)" stroke="rgb(60, 60, 60)" stroke-width="1px" opacity="0.25"></line><line x1="0" y1="109.53846153846153" x2="290" y2="109.53846153846153" fill="rgb(0, 0, 0)" stroke="rgb(60, 60, 60)" stroke-width="1px" opacity="0.25"></line><line x1="0" y1="95.84615384615384" x2="290" y2="95.84615384615384" fill="rgb(0, 0, 0)" stroke="rgb(60, 60, 60)" stroke-width="1px" opacity="0.25"></line><line x1="0" y1="82.15384615384616" x2="290" y2="82.15384615384616" fill="rgb(0, 0, 0)" stroke="rgb(60, 60, 60)" stroke-width="1px" opacity="0.25"></line><line x1="0" y1="68.46153846153845" x2="290" y2="68.46153846153845" fill="rgb(0, 0, 0)" stroke="rgb(60, 60, 60)" stroke-width="1px" opacity="0.25"></line><line x1="0" y1="54.769230769230774" x2="290" y2="54.769230769230774" fill="rgb(0, 0, 0)" stroke="rgb(60, 60, 60)" stroke-width="1px" opacity="0.25"></line><line x1="0" y1="41.076923076923066" x2="290" y2="41.076923076923066" fill="rgb(0, 0, 0)" stroke="rgb(60, 60, 60)" stroke-width="1px" opacity="0.25"></line><line x1="0" y1="27.384615384615387" x2="290" y2="27.384615384615387" fill="rgb(0, 0, 0)" stroke="rgb(60, 60, 60)" stroke-width="1px" opacity="0.25"></line><line x1="0" y1="13.69230769230768" x2="290" y2="13.69230769230768" fill="rgb(0, 0, 0)" stroke="rgb(60, 60, 60)" stroke-width="1px" opacity="0.25"></line><line x1="0" y1="0" x2="290" y2="0" fill="rgb(0, 0, 0)" stroke="rgb(60, 60, 60)" stroke-width="1px" opacity="0.25"></line></g></g></g><g><g><line x1="0" y1="95.84615384615384" x2="290" y2="95.84615384615384" fill="rgb(0, 0, 0)" stroke="rgb(153, 153, 153)" stroke-width="1.5px"></line></g></g><g><g><line x1="29" y1="0" x2="29" y2="178" fill="rgb(0, 0, 0)" stroke="rgb(153, 153, 153)" stroke-width="1.5px"></line></g></g><g><g><g><g><g><path stroke="rgb(0, 119, 187)" stroke-width="2px" d="M29.290000000000003,139.5851622067965L29.58,142.66158312284028L29.869999999999997,143.8355601970966L30.16,143.69495685283954L30.45,141.9041667644794L30.74,131.059279192411L31.03,110.2090134547307L31.32,98.93070793885451L31.61,97.21470796603423L31.9,90.37234412340017L32.19,85.45350928673378L32.480000000000004,86.61195321449867L32.77,80.15719666114221L33.06,67.80588050255409L33.35,74.17377587831938L33.64,74.21180992126465L33.93,69.29594218914325L34.22,59.071035502507144L34.51,62.77890222989596L34.8,57.27880903390738L35.089999999999996,52.9407605097844L35.38,54.81783265333908L35.67,56.043169461763824L35.96,50.29872448260967L36.25,53.05953609759992L36.54,52.643090292123645L36.83,55.01020575303296L37.12,45.12463736900918L37.410000000000004,50.51986958430365L37.7,52.54136323195239L37.99,54.25366428081806L38.28,47.95830741295447L38.57,46.81608739999626L38.86,43.72689314622144L39.150000000000006,45.71863544170674L39.440000000000005,39.920537743201606L39.730000000000004,46.26222440279449L40.02,45.55394791823167L40.31,44.19072905320388L40.6,46.288084470308746L40.88999999999999,42.039538104717536L41.18,48.12628032977764L41.47,37.609589972862835L41.76,44.057824707031244L42.05,42.84135689368614L42.339999999999996,45.94482093224158L42.629999999999995,38.080529433030335L42.919999999999995,42.57344325138973L43.21,37.023912459153394L43.5,34.440590432974005L43.79,35.52777880155122L44.08,35.85115239070012L44.37,40.64196102435773L44.66,40.04765478280876L44.95,39.622971989558295L45.24,43.47890601524941L45.53,37.432392883300764L45.82,28.04897519625152L46.11,42.09475256112904L46.4,40.65396393996019L46.69,42.878509521484375L46.980000000000004,35.86983055701623L47.27,37.77985065166769L47.56,34.20848705585186L47.85,26.464172480656543L48.14,34.30355453491211L48.43,38.83049228374776L48.720000000000006,35.946418351393476L49.010000000000005,39.69836889413688L49.300000000000004,34.86296979464018L49.59,42.14850974449746L49.879999999999995,32.19941940307618L50.169999999999995,27.357715900127715L50.459999999999994,35.706464503361616L50.75,39.943337015005255L51.04,43.99348009549655L51.33,34.23527685312126L51.62,31.56788740891676L51.91,36.64893886859599L52.199999999999996,26.111768341064447L52.489999999999995,33.70443772536058L52.78,34.84593693659855L53.07,35.39759574303261L53.36,34.59944886427658L53.65,30.491709547776452L53.94,34.593269817645734L54.23,25.158910252497748L54.52,32.43327255249025L54.81,37.35691240750825L55.1,35.2317329993615L55.39,35.42937369713417L55.68,35.44709079448995L55.97,33.513670759934655L56.260000000000005,28.510079369178186L56.550000000000004,31.79240669837364L56.84,28.719049189640913L57.13,36.40690096341646L57.42,28.449981219951923L57.71,33.3364893399752L58,37.745356633112976L58.290000000000006,37.26996178260217L58.580000000000005,27.184169827974756L58.870000000000005,37.91735141460714L59.16,34.408149132361785L59.449999999999996,37.573591672457184L59.739999999999995,31.59578452477089L60.029999999999994,36.109324763371376L60.32,32.35096535315881L60.61,28.426471592829785L60.9,30.972150010329017L61.19,32.589435812143165L61.48,33.57773854182318L61.769999999999996,34.54799511249249L62.06,27.653385631854718L62.35,36.61538502619817L62.64,31.662479576697706L62.93,27.088172619159394L63.22,34.243268350454485L63.51,36.85071111825795L63.8,34.24651195819561L64.09,28.674432607797485L64.38,30.6295393723708L64.67,30.247509237436134L64.96000000000001,29.3859004680927L65.25,26.312093764085034L65.54,31.73581331693208L65.83,28.715084780179552L66.12,32.42126963688776L66.41,28.008323023869423L66.7,38.14456587571365L66.99000000000001,27.252891481839697L67.28,29.336870281512915L67.57000000000001,32.84996384840744L67.86,36.440554046630865L68.14999999999999,29.870498598538916L68.44,36.45148098285381L68.72999999999999,30.267796149620636L69.02,26.596784327580366L69.31,31.666433539757378L69.6,27.023723543607275L69.89,31.0105353135329L70.17999999999999,30.408002530611498L70.47,28.962413787841797L70.76,37.16610365647537L71.05,34.731141427847064L71.34,22.828166550856366L71.63,33.30125362689677L71.92,39.70733713003307L72.21,32.53649867131159L72.5,31.948899019681505L72.79,30.121410721998956L73.08,30.25269065270058L73.37,25.850456824669465L73.66,26.725933192326465L73.95,30.464857072096606L74.24,32.87986667339618L74.53,29.876249342698316L74.82000000000001,27.79507540189303L75.11,35.4918327331543L75.4,31.40009208092323L75.69,20.45852567232572L75.98,33.142238499568066L76.27000000000001,36.1062900836651L76.56,37.438185413067146L76.85000000000001,27.68583215566781L77.14,31.538909090482264L77.43,32.62432679396409L77.72,26.150670741154585L78.01,27.236605541522692L78.30000000000001,31.345023874136132L78.59,34.834278752253624L78.88000000000001,32.87815868671123L79.17,29.19906657292293L79.46000000000001,36.72356273944561L79.75,25.02967259333684L80.04,29.478737640380842L80.33000000000001,38.93648147583008L80.62,38.215622300368096L80.91000000000001,28.52136148306039L81.2,34.09216637244592L81.49000000000001,28.3971955519456L81.77999999999999,22.626399524395282L82.07,27.97971555269683L82.36,29.788316756028394L82.64999999999999,31.60926038301909L82.94,29.873434037428638L83.22999999999999,30.314110271747296L83.52,34.019386291503906L83.80999999999999,30.47258740938628L84.1,23.219389519324665L84.39,32.36578357403096L84.67999999999999,33.763209181565514L84.97,32.021579859806934L85.25999999999999,30.64995164137619L85.55,31.88191669170675L85.83999999999999,29.550718571589556L86.13,23.916827862079316L86.42,28.99556022057166L86.71,30.66184486976036L87,31.869083287165722L87.28999999999999,29.875606888991143L87.58,29.284836754432092L87.87,36.42565225454479L88.16,31.0642193720891L88.45,23.249616182767426L88.74,33.689713522104114L89.03,33.535775346022376L89.32,34.35504484910231L89.61,27.12573787982646L89.9,24.90579916147084L90.19,28.477214989295362L90.48,24.645255455603973L90.77,30.90218001145584L91.06,33.84713034996619L91.35,29.554641195443963L91.64,33.05488046499397L91.93,32.935478093073925L92.22,36.78738503089318L92.51,26.264782010591944L92.8,30.581146416297315L93.09,33.04461165208082L93.38,35.234093886155335L93.67,32.800782189002405L93.96000000000001,28.501011892465442L94.25,28.312120056152338L94.54,27.169362053504358L94.83,27.08119442279522L95.12,27.803333282470703L95.41000000000001,31.367666449913628L95.7,30.47228446373572L95.99000000000001,28.32445725661057L96.28,30.683510706974914L96.57000000000001,28.29928665161131L96.86,22.84935707679162L97.15,33.35640018169698L97.44000000000001,31.23887798602763L97.73,29.71020901019756L98.02000000000001,30.521565363957336L98.31,30.634647662823028L98.60000000000001,26.492142721322864L98.89,24.47591406015249L99.18,26.249498924842243L99.47000000000001,26.56517873910758L99.75999999999999,27.76366829505332L100.05,28.2456809410682L100.33999999999999,23.628287799541766L100.63,36.58178417499249L100.91999999999999,31.156476769080513L101.21,20.898371417705818L101.5,33.12422367976262L101.78999999999999,31.630033052884613L102.08,31.243610206017138L102.36999999999999,26.563721466064436L102.66,27.44834365844727L102.94999999999999,29.748923375056336L103.24,20.426658923809356L103.53,28.62519349318285L103.82,31.435030071551978L104.11,25.371740018404466L104.39999999999999,31.991248732346747L104.69,32.286892348069415L104.97999999999999,38.88368536142201L105.27,21.605295093242944L105.56,24.417905191274798L105.85,28.75537655170146L106.14,31.06846583439753L106.42999999999999,25.755457247220534L106.72,26.193025677020728L107.01,25.27262978186974L107.3,28.560112410325274L107.59,20.504192117544335L107.88,27.63614906897911L108.17,28.777251316950867L108.46,30.5906108562763L108.75,30.614172715407165L109.04,30.109919680081873L109.33,28.250371375450726L109.62,21.879518362192016L109.91,29.054326453575726L110.2,28.596988208477313L110.49,31.022856844388514L110.78,27.01202357365534L111.07000000000001,28.792111323429992L111.36,28.8708040677584L111.65,19.479676936222944L111.94,29.062694021371698L112.23,28.10931361271784L112.52000000000001,34.13555550208457L112.81,29.334065422644983L113.10000000000001,26.66079465425932L113.39,33.98441173846905L113.68,27.091578146127546L113.97,18.137131500244124L114.26,35.07662482628456L114.55000000000001,32.15790017934944L114.84,32.6944952744704L115.13000000000001,29.560287475585938L115.42,28.655895467904884L115.71000000000001,29.498267188439L116,22.133982262244587L116.29,24.21917806772086L116.58000000000001,33.11080527672402L116.87,29.45131061260517L117.16000000000001,29.146254788912245L117.45,28.58121414184572L117.74000000000001,32.46535867544321L118.02999999999999,26.49988350501428L118.32,25.47634506225586L118.61,30.51830086341272L118.89999999999999,31.888602388822108L119.19,30.130274493877693L119.47999999999999,27.814390798715436L119.77,27.284220240666315L120.05999999999999,30.374088287353516L120.35,21.03177196796122L120.64,26.501466134878314L120.92999999999999,33.63958124014047L121.22,29.176350872333245L121.50999999999999,31.845443080021766L121.8,30.2440671480619L122.08999999999999,28.979269057053784L122.38,19.88029121985801L122.67,32.0034919151893L122.96,32.86030578613281L123.25,30.39881492027871L123.53999999999999,31.352226668137774L123.83,31.604674412653992L124.12,26.82073428814229L124.41,26.380475909893335L124.7,29.701799656794634L124.99,29.047045311560993L125.28,31.450741459773155L125.57,26.531468200683577L125.86,24.571744126539954L126.15,31.348163017859832L126.44,29.52123360267052L126.73,23.67695758526142L127.02,32.00176303570089L127.31,29.758695983886724L127.6,31.438989257812494L127.89,26.078324185884924L128.18,33.04977217454177L128.47,25.00699867835411L128.76,21.123433920053344L129.05,27.781782355675347L129.34,28.46087681696966L129.63,33.49541044968825L129.92000000000002,28.771155841533954L130.21,25.12203445434571L130.5,32.19530352078951L130.79,28.733042144775396L131.08,26.37371708796576L131.37,34.085454559326166L131.66,36.121526160606976L131.95000000000002,32.70979925302359L132.24,27.844748042179987L132.53,31.310937265249407L132.82,27.962019348144537L133.11,24.993569828913763L133.4,28.216289989764874L133.69,34.95200447669396L133.98000000000002,29.0298818734976L134.27,32.44996590247521L134.56,31.342344372089087L134.85,31.707435666597803L135.14000000000001,25.525881899320154L135.43,29.139307931753308L135.72,29.580866887019226L136.01,30.319046196570753L136.29999999999998,28.749145273061913L136.59,29.928235860971313L136.88,30.257234837458697L137.17,23.5422616811899L137.45999999999998,31.59207605215221L137.75,25.376393890380854L138.04,33.04884766798753L138.32999999999998,29.046637901893035L138.62,26.319165978064888L138.91,35.48134454580452L139.2,30.85941244272084L139.49,22.46460043100211L139.78,31.359711514986486L140.07,34.550079169640185L140.35999999999999,31.17616823636567L140.65,26.732911388690667L140.94,33.402432250976545L141.23,29.06512280977691L141.52,24.758656369722814L141.81,28.559198350172778L142.1,28.978334104097826L142.39,32.63309654822717L142.68,30.175893930288453L142.97,28.329972956730757L143.26,33.26321305495043L143.55,29.02638232891377L143.84,25.2492298419659L144.13,33.8940921490009L144.42,33.361738292987525L144.71,34.36494281475362L145,25.84705129770134L145.29,28.966989311805122L145.58,32.139321253849914L145.87,24.093309373121997L146.16,26.616392223651587L146.45,32.277177194448626L146.74,27.077277022141686L147.03,32.27790321936973L147.32,32.20470005915715L147.61,29.035846768892725L147.9,21.946746180607704L148.19,28.673434976431054L148.48,31.130115274282616L148.77,33.346120922382056L149.06,30.30885050846979L149.35,29.380379544771642L149.64000000000001,29.488290874774634L149.93,24.021521700345545L150.22,31.75139412513147L150.51,28.081547076885528L150.8,29.95783051710862L151.09,29.02841415405274L151.38,28.627726745605486L151.67000000000002,32.052297504131616L151.96,31.3950934776893L152.25,23.043717604417054L152.54000000000002,32.9477369455191L152.83,36.466623042179975L153.12,27.271198800893927L153.41,30.82890894963191L153.70000000000002,29.540058018611035L153.99,28.26007608266977L154.28,25.049938612717852L154.57000000000002,24.641165689321667L154.86,27.431880129300623L155.15,29.163517467792218L155.44,26.424032181959888L155.73000000000002,29.892587515024047L156.02,35.4097031226525L156.31,28.609414203350354L156.60000000000002,25.686740816556494L156.89000000000001,29.782451101449823L157.18,33.82425273014948L157.47,33.26567840576172L157.76000000000002,29.311866818941553L158.05,28.941510537954485L158.34,34.102952282245354L158.63000000000002,26.526924015925488L158.92000000000002,25.64421873826248L159.21,28.242212735689606L159.5,25.176366189809954L159.79000000000002,30.81808125422552L160.08,27.552504730224626L160.37,35.834840334378754L160.66000000000003,24.916600740872894L160.95000000000002,24.583261284461372L161.24,32.601302924523L161.53,32.708566577617944L161.82000000000002,29.43920845618615L162.11,30.723718907282915L162.4,25.29133406419021L162.69000000000003,26.122679607684802L162.98000000000002,26.244291393573462L163.26999999999998,23.31894372793346L163.55999999999997,34.28703877375676L163.85,29.400039672851562L164.14,31.3611687880296L164.42999999999998,32.22769258939303L164.72,30.09534694965069L165.01,23.90629266592174L165.29999999999998,34.52437057495118L165.58999999999997,32.74965227567233L165.88,31.52715688852163L166.17,26.542369020902186L166.45999999999998,32.913713015042816L166.75,29.372069432185242L167.04,25.53412933349611L167.32999999999998,31.572060746413L167.61999999999998,26.70203704833986L167.91,31.250990588848396L168.2,27.139464451716492L168.48999999999998,29.828054868257965L168.78,35.16665191650392L169.07,26.260786261925347L169.35999999999999,24.32701104971079L169.64999999999998,33.98407223041241L169.94,33.56515062772311L170.23,31.57211297842173L170.51999999999998,28.9002054654635L170.81,27.72894967886117L171.1,30.167573371300335L171.39,26.891299731914813L171.67999999999998,25.964359166071972L171.97,30.2927473801833L172.26,29.939721679687494L172.54999999999998,33.54978919396035L172.84,29.68239546555739L173.13,34.62045657818135L173.42,24.979174687312195L173.70999999999998,30.68334878774789L174,28.46630894587591L174.29,33.21992838932917L174.57999999999998,31.085827754094055L174.87,29.08152888371393L175.16,30.171422870342553L175.45,26.897557126558752L175.74,25.36960372924804L176.03,27.75468438955454L176.32,34.63192150409404L176.60999999999999,33.1483496445876L176.9,32.86637514554536L177.19,27.817885120098396L177.48,31.336901796781092L177.77,21.47843399047852L178.06,29.50574681208684L178.35,31.832244051419764L178.64,34.38492155808669L178.93,28.41208167442909L179.22,25.368010652982264L179.51,28.178740398700427L179.8,23.57667735173152L180.09,29.9994646512545L180.38,29.26795014601487L180.67,30.871185537484962L180.96,29.48022102942832L181.25,27.282956226055433L181.54,35.778173828125006L181.83,27.940818375807538L182.12,22.03374903752254L182.41,30.97140309260442L182.7,33.262659395658034L182.99,33.31509510920597L183.28,29.00955839890699L183.57,31.360233835073615L183.86,28.171156311035162L184.15,27.227376145582923L184.44,27.570859058086683L184.73,31.460534961407006L185.02,23.656775137094343L185.31,30.35142481877253L185.6,28.098736630953283L185.89000000000001,33.839650726318354L186.18,25.876598945030793L186.47,25.21218167818509L186.76,28.542045358511132L187.05,35.69472274780273L187.34,27.01330325786884L187.63,25.383215390718902L187.92000000000002,26.0402366051307L188.21,31.077742239145124L188.5,25.55200312687799L188.79000000000002,26.14624669001654L189.08,29.610994309645434L189.37,31.01877230130708L189.66,32.33218272282528L189.95000000000002,31.93142741276668L190.24,30.79095717210035L190.53,24.51483735304612L190.82000000000002,32.02817676250751L191.11,32.5639622614934L191.4,30.80697672917293L191.69,29.117887584979712L191.98000000000002,31.24656653771035L192.27,32.40071111825796L192.56,22.674510427621698L192.85000000000002,29.890174396221454L193.14000000000001,26.35767141488884L193.43,30.614867401123064L193.72,30.353618563138525L194.01000000000002,30.405876687856818L194.3,35.64098123403696L194.59,35.215295586219185L194.88000000000002,21.094204887977014L195.17000000000002,32.5901618370643L195.46,33.47787094116211L195.75,29.38071382962741L196.04000000000002,26.395685870830818L196.33,31.41669141329251L196.62,26.15554921076847L196.91000000000003,26.881057035005995L197.20000000000002,27.601900540865387L197.49,32.27203756479116L197.78,26.642685816838195L198.07000000000002,31.133494685246376L198.36,29.033162043644836L198.65,35.38438104482799L198.94000000000003,26.370530935434203L199.23000000000002,24.543094869760353L199.51999999999998,28.947444094144373L199.80999999999997,35.43577734140251L200.1,31.330116858849152L200.39,30.26703356229342L200.67999999999998,29.684980949988727L200.97,27.515561030461242L201.26,22.427823873666625L201.54999999999998,27.699161764291603L201.83999999999997,32.65043757512018L202.13,31.42911218496471L202.42,32.05519638061523L202.70999999999998,31.735233541635353L203,32.89292989877555L203.29,23.732365300105187L203.57999999999998,30.74171283428487L203.86999999999998,35.61827597984902L204.16,35.881718562199524L204.45,31.154418827937207L204.73999999999998,31.46051929180439L205.03,28.92296817486104L205.32,21.261399547870354L205.60999999999999,30.7279026911809L205.89999999999998,31.24868715726413L206.19,29.103121596116296L206.48,32.20181685227615L206.76999999999998,27.350309401292066L207.06,30.18556729830229L207.35,28.931774491530206L207.64,23.257341296856225L207.92999999999998,35.3279025738056L208.22,35.17031338031475L208.51,34.608573796198925L208.79999999999998,30.42048598069411L209.09,31.225731189434356L209.38,27.69017263559195L209.67,26.063699223445013L209.95999999999998,26.82596271221456L210.25,27.738596930870642L210.54,29.247010333721448L210.82999999999998,29.584528350830084L211.12,26.85204737736629L211.41,32.69707031250002L211.7,27.162550999568055L211.99,26.357488602858325L212.28,31.52559515146109L212.57,32.04890764676608L212.85999999999999,28.915237837571368L213.15,26.325841228778557L213.44,29.43275780310998L213.73,31.305494689941412L214.02,26.327737250694867L214.31,26.557761793870185L214.6,32.03951110839844L214.89,30.096725874680743L215.18,34.522693927471465L215.47,33.84441428551307L215.76,31.756857593242927L216.05,20.84512610802284L216.34,31.27906007033127L216.63,31.046716425969038L216.92,36.57474852341872L217.21,29.338223090538605L217.5,28.171307783860414L217.79,27.53918034480168L218.08,23.657469822810242L218.37,30.02602462768553L218.66,31.929421703632073L218.95,27.623942448542664L219.24,29.612879885159998L219.53,28.461963242750898L219.82,35.31758152888372L220.11,27.741950225830095L220.4,22.69819764357348L220.69,30.289164264385505L220.98,33.830766061636126L221.27,30.977467228816124L221.56,30.62752844003529L221.85,27.79289732712965L222.14000000000001,26.013666182297925L222.43,28.01256426297701L222.72,25.018160658616296L223.01,28.610944601205688L223.3,32.01849294809193L223.59,29.544320150522083L223.88,33.63775311983548L224.17000000000002,36.55971092810998L224.46,28.626222463754516L224.75,24.783769519512475L225.04000000000002,31.332639664870044L225.33,32.208492102989794L225.62,29.35565813504732L225.91,28.371977938138514L226.20000000000002,29.223511153001056L226.49,30.029602520282452L226.78,25.48260768010067L227.07000000000002,29.695254986102753L227.36,34.276383443979114L227.65,27.436006457989038L227.94,32.63443891085112L228.23000000000002,30.345569610595703L228.52,35.12289193960336L228.81,26.320894857553327L229.10000000000002,29.780147669865528L229.39000000000001,37.99409068180964L229.68,32.55916213989258L229.97,28.79002204308142L230.26000000000002,31.33073319655199L230.55,27.490212836632367L230.84,26.828934713510364L231.13000000000002,25.75906125582182L231.42000000000002,32.426753997802734L231.71,30.790403512807984L232,29.3073487501878L232.29000000000002,31.42817723200872L232.58,34.5401968735915L232.87,32.43957173274114L233.16000000000003,20.211828671968902L233.45000000000002,31.38464185274566L233.74,34.78904583270733L234.03,28.642461395263666L234.32000000000002,28.804109015831585L234.61,33.7167958186223L234.9,27.17528516329253L235.19000000000003,27.437677882267877L235.48000000000002,28.03822062565729L235.76999999999998,30.75256142249475L236.05999999999997,34.262270355224615L236.35,31.048330395038306L236.64,25.342453531118537L236.92999999999998,32.91441292395959L237.22,27.92964072594276L237.51,23.760194514347944L237.79999999999998,29.811105581430297L238.08999999999997,34.255125016432544L238.38,35.32559914222131L238.67,25.14119315514199L238.95999999999998,29.298338728684655L239.25,28.41977022611178L239.54,26.911325484055737L239.82999999999998,26.785477682260364L240.11999999999998,37.67629547119142L240.41,27.021937208909264L240.7,34.69806811992939L240.98999999999998,28.762459212083087L241.28,35.16282331026517L241.57,24.527200669508716L241.85999999999999,29.988025841346143L242.14999999999998,33.34046419583834L242.44,36.12728735116812L242.73,29.69064289973332L243.01999999999998,26.969736539400543L243.31,30.214979142409106L243.6,27.9231117248535L243.89,26.945626244178186L244.17999999999998,32.17494870699369L244.47,29.538344808725213L244.76,31.49952615591195L245.04999999999998,29.87744023249701L245.34,32.946039405235894L245.63,33.976169527493994L245.92,23.19398909348709L246.20999999999998,31.5912925720215L246.5,32.88025841346155L246.79,30.84341900165265L247.07999999999998,31.842413623516364L247.37,29.296103198711677L247.66,27.500580890362073L247.95,27.31837997436523L248.24,27.02687313373272L248.53,29.70303233220028L248.82,30.27443483792817L249.10999999999999,31.429900888296288L249.4,28.918016580434937L249.69,35.94138840895434L249.98,30.01567224355844L250.27,23.895041891244745L250.56,30.993732276329638L250.85,34.78430316631611L251.14,30.72186467097356L251.43,30.174097149188697L251.72,29.95330200195312L252.01,30.18058958787185L252.3,23.737468367356513L252.59,25.389310866135816L252.88,33.861008394681505L253.17,29.921957573523883L253.46,33.12085471520058L253.75,27.84290947547325L254.04,32.5096409724309L254.33,25.189596557617193L254.62,34.20218787560097L254.91,33.85360711904673L255.2,33.74397213275614L255.49,29.007798180213342L255.78,28.160730802095856L256.07,27.571240351750305L256.36,28.69156470665564L256.65,29.374273622952956L256.94,28.655905914306658L257.23,34.65319037804238L257.52,27.834635925292986L257.81,35.91054018460787L258.1,30.8392091017503L258.39,37.366418633094185L258.68,24.281830362173224L258.97,30.195224996713478L259.26,35.68893544123722L259.55,29.9899375328651L259.84000000000003,33.23277224027194L260.13,31.49273599477914L260.42,27.396320577768165L260.71,27.748526235727155L261,26.651554811917833L261.29,29.039267965463495L261.58,28.662231210561913L261.87,28.721180255596465L262.16,31.501056553767285L262.45,37.64665380624626L262.74,32.15870455228364L263.03000000000003,24.47194442749023L263.32,28.3404872600849L263.61,32.18257458026591L263.90000000000003,32.744993180495044L264.19,26.861908780611486L264.48,31.89813473041241L264.77,25.4569826566256L265.06,29.0963993365948L265.35,26.574998356745795L265.64,34.37832987858698L265.93,27.9353131220891L266.22,34.165865736741296L266.51,28.814733006403998L266.8,31.841499563363868L267.09000000000003,27.700921982985278L267.38,26.193359961876496L267.67,30.53777295626128L267.96000000000004,32.592245894212L268.25,29.854024622990522L268.54,23.968271167461694L268.83000000000004,27.431446603628302L269.12,28.43529880230244L269.41,28.082273101806635L269.7,26.797005286583527L269.99,32.386305530254646L270.28000000000003,29.100828610933746L270.57,31.625321725698626L270.86,29.908674973707946L271.15000000000003,33.05270239023062L271.44,25.345942629300623L271.73,28.94153665395885L272.02,32.26989082923302L272.31,30.70141061636116L272.59999999999997,28.113131772554823L272.89,30.737273113544177L273.18,27.208447265624983L273.46999999999997,23.374398451585023L273.76,25.71468494121845L274.05,28.707537254920368L274.34,29.19230252779448L274.63,31.26067962646485L274.91999999999996,29.03049821120041L275.21,34.97223915686973L275.5,31.197473672720093L275.78999999999996,24.829195697490974L276.08,29.89509465144232L276.37,29.707848123403693L276.65999999999997,36.19846390944261L276.95,27.6840980529785L277.24,30.009587214543274L277.53,30.610417233980627L277.82,28.01126890916092L278.11,24.401833402193517L278.4,31.625457528921288L278.69,30.87270548893855L278.98,27.810776343712433L279.27,30.826960695706873L279.56,34.10467593853292L279.84999999999997,27.477546574519238" style="fill: none;" fill="none"></path></g></g></g></g></g></g><g transform="translate(40, 178)" clip-path="url(#clip_1)"><clipPath id="clip_1"><rect width="290" height="22"></rect></clipPath><g><g><line x1="0" y1="0" x2="0" y2="5" style="visibility: inherit;" fill="rgb(0, 0, 0)" stroke="rgb(204, 204, 204)" stroke-width="1px"></line><line x1="29" y1="0" x2="29" y2="5" style="visibility: inherit;" fill="rgb(0, 0, 0)" stroke="rgb(204, 204, 204)" stroke-width="1px"></line><line x1="58" y1="0" x2="58" y2="5" style="visibility: inherit;" fill="rgb(0, 0, 0)" stroke="rgb(204, 204, 204)" stroke-width="1px"></line><line x1="87" y1="0" x2="87" y2="5" style="visibility: inherit;" fill="rgb(0, 0, 0)" stroke="rgb(204, 204, 204)" stroke-width="1px"></line><line x1="116" y1="0" x2="116" y2="5" style="visibility: inherit;" fill="rgb(0, 0, 0)" stroke="rgb(204, 204, 204)" stroke-width="1px"></line><line x1="145" y1="0" x2="145" y2="5" style="visibility: inherit;" fill="rgb(0, 0, 0)" stroke="rgb(204, 204, 204)" stroke-width="1px"></line><line x1="174" y1="0" x2="174" y2="5" style="visibility: inherit;" fill="rgb(0, 0, 0)" stroke="rgb(204, 204, 204)" stroke-width="1px"></line><line x1="203" y1="0" x2="203" y2="5" style="visibility: inherit;" fill="rgb(0, 0, 0)" stroke="rgb(204, 204, 204)" stroke-width="1px"></line><line x1="232" y1="0" x2="232" y2="5" style="visibility: inherit;" fill="rgb(0, 0, 0)" stroke="rgb(204, 204, 204)" stroke-width="1px"></line><line x1="261" y1="0" x2="261" y2="5" style="visibility: inherit;" fill="rgb(0, 0, 0)" stroke="rgb(204, 204, 204)" stroke-width="1px"></line><line x1="290" y1="0" x2="290" y2="5" style="visibility: inherit;" fill="rgb(0, 0, 0)" stroke="rgb(204, 204, 204)" stroke-width="1px"></line></g><g transform="translate(0, 8)"><text x="0" y="0" dx="0em" dy="0.95em" style="text-anchor: middle; visibility: hidden; font-family: &quot;Helvetica Neue&quot;, sans-serif; font-size: 12px; font-weight: 200;" fill="rgb(50, 49, 63)" stroke="none" stroke-width="1px">-2k</text><text x="29" y="0" dx="0em" dy="0.95em" style="text-anchor: middle; visibility: inherit; font-family: &quot;Helvetica Neue&quot;, sans-serif; font-size: 12px; font-weight: 200;" fill="rgb(50, 49, 63)" stroke="none" stroke-width="1px">0</text><text x="58" y="0" dx="0em" dy="0.95em" style="text-anchor: middle; visibility: inherit; font-family: &quot;Helvetica Neue&quot;, sans-serif; font-size: 12px; font-weight: 200;" fill="rgb(50, 49, 63)" stroke="none" stroke-width="1px">2k</text><text x="87" y="0" dx="0em" dy="0.95em" style="text-anchor: middle; visibility: inherit; font-family: &quot;Helvetica Neue&quot;, sans-serif; font-size: 12px; font-weight: 200;" fill="rgb(50, 49, 63)" stroke="none" stroke-width="1px">4k</text><text x="116" y="0" dx="0em" dy="0.95em" style="text-anchor: middle; visibility: inherit; font-family: &quot;Helvetica Neue&quot;, sans-serif; font-size: 12px; font-weight: 200;" fill="rgb(50, 49, 63)" stroke="none" stroke-width="1px">6k</text><text x="145" y="0" dx="0em" dy="0.95em" style="text-anchor: middle; visibility: inherit; font-family: &quot;Helvetica Neue&quot;, sans-serif; font-size: 12px; font-weight: 200;" fill="rgb(50, 49, 63)" stroke="none" stroke-width="1px">8k</text><text x="174" y="0" dx="0em" dy="0.95em" style="text-anchor: middle; visibility: inherit; font-family: &quot;Helvetica Neue&quot;, sans-serif; font-size: 12px; font-weight: 200;" fill="rgb(50, 49, 63)" stroke="none" stroke-width="1px">10k</text><text x="203" y="0" dx="0em" dy="0.95em" style="text-anchor: middle; visibility: inherit; font-family: &quot;Helvetica Neue&quot;, sans-serif; font-size: 12px; font-weight: 200;" fill="rgb(50, 49, 63)" stroke="none" stroke-width="1px">12k</text><text x="232" y="0" dx="0em" dy="0.95em" style="text-anchor: middle; visibility: inherit; font-family: &quot;Helvetica Neue&quot;, sans-serif; font-size: 12px; font-weight: 200;" fill="rgb(50, 49, 63)" stroke="none" stroke-width="1px">14k</text><text x="261" y="0" dx="0em" dy="0.95em" style="text-anchor: middle; visibility: inherit; font-family: &quot;Helvetica Neue&quot;, sans-serif; font-size: 12px; font-weight: 200;" fill="rgb(50, 49, 63)" stroke="none" stroke-width="1px">16k</text><text x="290" y="0" dx="0em" dy="0.95em" style="text-anchor: middle; visibility: hidden; font-family: &quot;Helvetica Neue&quot;, sans-serif; font-size: 12px; font-weight: 200;" fill="rgb(50, 49, 63)" stroke="none" stroke-width="1px">18k</text></g><line x1="0" y1="0" x2="290" y2="0" fill="rgb(0, 0, 0)" stroke="rgb(204, 204, 204)" stroke-width="1px"></line></g></g></g></g></svg>